# xmcd
#
# Track frame offsets:
#	182
#	23365
#	35185
#	47645
#	60340
#	71197
#	86232
#	101010
#	116102
#	133115
#	150622
#	169797
#
# Disc length: 2580 seconds
#
# Revision: 3
# Processed by: cddbd v1.4PL0 Copyright (c) Steve Scherf et al.
# Submitted via: dBpowerAMP V4.0
#
DISCID=a30a120c
DTITLE=Zizi Possi - Valsa Brasileira
DYEAR=1993
DGENRE=MPB
TTITLE0=Meditação - Modinha - Coda
TTITLE1=Lamentos
TTITLE2=Uirapuru
TTITLE3=Escurinha
TTITLE4=Escurinho - O samba e o pandeiro
TTITLE5=Se queres saber
TTITLE6=Valsa brasileira
TTITLE7=Bom dia
TTITLE8=Tanta saudade
TTITLE9=Viver, amar, valeu
TTITLE10=Quem é você
TTITLE11=Renascer - Meditação
EXTD=
EXTT0=
EXTT1=
EXTT2=
EXTT3=
EXTT4=
EXTT5=
EXTT6=
EXTT7=
EXTT8=
EXTT9=
EXTT10=
EXTT11=
PLAYORDER=
